HIERARCHY
ROOT Hips
{
	OFFSET 0.000000 0.000000 0.000000
	CHANNELS 6 Xposition Yposition Zposition Zrotation Yrotation Xrotation 
	JOINT LHipJoint
	{
		OFFSET 0.000000 0.000000 0.000000
		CHANNELS 3 Zrotation Yrotation Xrotation
		JOINT LeftUpLeg
		{
			OFFSET 1.363060 -1.794630 0.839290
			CHANNELS 3 Zrotation Yrotation Xrotation
			JOINT LeftLeg
			{
				OFFSET 2.448110 -6.726130 0.000000
				CHANNELS 3 Zrotation Yrotation Xrotation
				JOINT LeftFoot
				{
					OFFSET 2.562200 -7.039590 0.000000
					CHANNELS 3 Zrotation Yrotation Xrotation
					JOINT LeftToeBase
					{
						OFFSET 0.157640 -0.433110 2.322550
						CHANNELS 3 Zrotation Yrotation Xrotation
						End Site
						{
							OFFSET 0.000000 0.000000 0.000000
						}
					}
				}
			}
		}
	}
	JOINT RHipJoint
	{
		OFFSET 0.000000 0.000000 0.000000
		CHANNELS 3 Zrotation Yrotation Xrotation
		JOINT RightUpLeg
		{
			OFFSET -1.305520 -1.794630 0.839290
			CHANNELS 3 Zrotation Yrotation Xrotation
			JOINT RightLeg
			{
				OFFSET -2.542530 -6.985550 0.000000
				CHANNELS 3 Zrotation Yrotation Xrotation
				JOINT RightFoot
				{
					OFFSET -2.568260 -7.056230 0.000000
					CHANNELS 3 Zrotation Yrotation Xrotation
					JOINT RightToeBase
					{
						OFFSET -0.164730 -0.452590 2.363150
						CHANNELS 3 Zrotation Yrotation Xrotation
						End Site
						{
							OFFSET 0.000000 0.000000 0.000000
						}
					}
				}
			}
		}
	}
	JOINT LowerBack
	{
		OFFSET 0.000000 0.000000 0.000000
		CHANNELS 3 Zrotation Yrotation Xrotation
		JOINT Spine
		{
			OFFSET 0.028270 2.035590 -0.193380
			CHANNELS 3 Zrotation Yrotation Xrotation
			JOINT Spine1
			{
				OFFSET 0.056720 2.048850 -0.042750
				CHANNELS 3 Zrotation Yrotation Xrotation
				JOINT Neck
				{
					OFFSET 0.000000 0.000000 0.000000
					CHANNELS 3 Zrotation Yrotation Xrotation
					JOINT Neck1
					{
						OFFSET -0.054170 1.746240 0.172020
						CHANNELS 3 Zrotation Yrotation Xrotation
						JOINT Head
						{
							OFFSET 0.104070 1.761360 -0.123970
							CHANNELS 3 Zrotation Yrotation Xrotation
							End Site
							{
								OFFSET 0.000000 0.000000 0.000000
							}
						}
					}
				}
				JOINT LeftShoulder
				{
					OFFSET 0.000000 0.000000 0.000000
					CHANNELS 3 Zrotation Yrotation Xrotation
					JOINT LeftArm
					{
						OFFSET 3.362410 1.200890 -0.311210
						CHANNELS 3 Zrotation Yrotation Xrotation
						JOINT LeftForeArm
						{
							OFFSET 4.983000 -0.000000 -0.000000
							CHANNELS 3 Zrotation Yrotation Xrotation
							JOINT LeftHand
							{
								OFFSET 3.483560 -0.000000 -0.000000
								CHANNELS 3 Zrotation Yrotation Xrotation
								JOINT LeftFingerBase
								{
									OFFSET 0.000000 0.000000 0.000000
									CHANNELS 3 Zrotation Yrotation Xrotation
									JOINT LeftHandIndex1
									{
										OFFSET 0.715260 -0.000000 -0.000000
										CHANNELS 3 Zrotation Yrotation Xrotation
										End Site
										{
											OFFSET 0.000000 0.000000 0.000000
										}
									}
								}
								JOINT LThumb
								{
									OFFSET 0.000000 0.000000 0.000000
									CHANNELS 3 Zrotation Yrotation Xrotation
									End Site
									{
										OFFSET 0.000000 0.000000 0.000000
									}
								}
							}
						}
					}
				}
				JOINT RightShoulder
				{
					OFFSET 0.000000 0.000000 0.000000
					CHANNELS 3 Zrotation Yrotation Xrotation
					JOINT RightArm
					{
						OFFSET -3.136600 1.374050 -0.404650
						CHANNELS 3 Zrotation Yrotation Xrotation
						JOINT RightForeArm
						{
							OFFSET -5.241900 -0.000000 -0.000000
							CHANNELS 3 Zrotation Yrotation Xrotation
							JOINT RightHand
							{
								OFFSET -3.444170 -0.000000 -0.000000
								CHANNELS 3 Zrotation Yrotation Xrotation
								JOINT RightFingerBase
								{
									OFFSET 0.000000 0.000000 0.000000
									CHANNELS 3 Zrotation Yrotation Xrotation
									JOINT RightHandIndex1
									{
										OFFSET -0.622530 -0.000000 -0.000000
										CHANNELS 3 Zrotation Yrotation Xrotation
										End Site
										{
											OFFSET 0.000000 0.000000 0.000000
										}
									}
								}
								JOINT RThumb
								{
									OFFSET 0.000000 0.000000 0.000000
									CHANNELS 3 Zrotation Yrotation Xrotation
									End Site
									{
										OFFSET 0.000000 0.000000 0.000000
									}
								}
							}
						}
					}
				}
			}
		}
	}
}
MOTION
Frames: 12
Frame Time: 0.008333
-9.990962 17.854170 6.097518 -12.365448 -84.837401 19.333659 -1.590219 -1.134802 -0.459223 -17.290465 -2.195457 -0.985607 -0.058749 5.253714 13.488450 0.352240 0.233981 -4.356779 0.077600 -1.796600 -4.944000 -0.369545 1.050201 -1.952220 14.393328 2.381700 -32.608771 -1.266914 -8.576978 22.563953 3.062179 -18.603299 -2.680725 -0.151200 -2.506000 6.906400 0.557367 -1.665169 3.489001 1.475782 -1.802594 -5.987617 5.328377 -1.156410 -3.803028 -8.653367 -12.943375 -9.948414 25.454886 -17.567030 1.328958 8.310500 -7.813000 7.428500 6.336623 2.884127 0.282465 -92.002756 0.876775 8.585897 14.385876 -32.921744 -4.356285 1.851737 2.520321 24.277116 17.386797 23.010080 5.851400 -7.125000 0.000000 0.000000 -11.585300 50.314500 -1.535500 -4.138613 -1.778947 -0.378266 -0.066402 51.089872 -39.535814 -74.716860 57.530827 -49.087504 -0.492907 -0.368127 -12.148521 -34.785009 -39.439702 23.374100 7.125000 0.000000 0.000000 2.159700 -74.834800 -1.519600 
-10.119987 17.845900 6.087555 -11.745382 -84.706220 18.821128 -1.585454 -1.119382 -0.447367 -17.283900 -2.229692 -0.655344 -0.052144 5.272624 13.541766 0.362711 0.194002 -4.545696 0.093700 -1.973700 -5.433000 -0.369782 1.052800 -1.954063 14.176749 2.733521 -32.433134 -1.140618 -8.276147 21.653298 3.115426 -18.868727 -2.637418 -0.155300 -2.539300 6.998700 0.637149 -1.701581 3.436988 1.513413 -1.854299 -6.003915 5.367545 -1.178435 -3.816022 -8.595276 -12.979199 -9.935931 25.508047 -17.656888 1.399338 8.309000 -7.848900 7.469900 6.338660 2.884837 0.283835 -92.083488 0.826441 9.166419 14.676179 -33.272143 -4.452945 1.831406 2.535437 23.910591 17.470885 22.985336 5.876500 -7.125000 0.000000 0.000000 -11.488600 50.300500 -1.518400 -4.157206 -1.771646 -0.375836 -1.149530 51.572853 -41.874512 -75.527854 57.605457 -49.842911 -0.538285 -0.360402 -11.704583 -34.544276 -38.005197 22.523000 7.125000 0.000000 0.000000 1.135100 -73.297300 -0.761000 
-10.250107 17.837731 6.076495 -11.268372 -84.590319 18.446491 -1.579281 -1.105365 -0.436960 -17.264888 -2.267211 -0.335100 -0.042527 5.303949 13.630913 0.371151 0.165528 -4.726086 0.112900 -2.166600 -5.966400 -0.369418 1.054178 -1.955325 13.979874 3.096455 -32.247870 -1.031125 -8.004396 20.833820 3.169055 -19.136172 -2.587141 -0.160600 -2.581700 7.116300 0.712274 -1.736524 3.382284 1.551961 -1.904108 -6.018262 5.417014 -1.199632 -3.823523 -8.542155 -13.012107 -9.924247 25.553524 -17.742561 1.474482 8.306600 -7.882500 7.511700 6.341731 2.884856 0.286116 -92.175100 0.789711 9.717265 14.945708 -33.597435 -4.543055 1.812854 2.548205 23.579918 17.550822 22.946928 5.896100 -7.125000 0.000000 0.000000 -11.392300 50.273000 -1.497600 -4.172245 -1.764772 -0.375519 -2.049979 52.030921 -43.900978 -76.360621 57.689290 -50.616557 -0.581567 -0.351138 -11.297084 -34.294826 -36.668990 21.704000 7.125000 0.000000 0.000000 0.425300 -71.842800 -0.271600 
-10.381223 17.829561 6.064141 -10.922407 -84.491571 18.197429 -1.571838 -1.092680 -0.427850 -17.234197 -2.307970 -0.026815 -0.029344 5.348687 13.758451 0.377439 0.148881 -4.895974 0.136000 -2.376900 -6.548400 -0.368565 1.054456 -1.955944 13.807193 3.463326 -32.057888 -0.937374 -7.762970 20.108224 3.220243 -19.394493 -2.525045 -0.166400 -2.627700 7.243900 0.782446 -1.769799 3.327749 1.591261 -1.951894 -6.031648 5.476621 -1.219740 -3.829545 -8.493905 -13.042170 -9.911260 25.589980 -17.824121 1.555404 8.302800 -7.914300 7.553600 6.345664 2.883839 0.289214 -92.277419 0.769847 10.239160 15.193742 -33.897443 -4.626335 1.796312 2.559307 23.284375 17.626451 22.902313 5.912100 -7.125000 0.000000 0.000000 -11.298800 50.238700 -1.475400 -4.183369 -1.758055 -0.377154 -2.757190 52.468268 -45.603291 -77.199314 57.779296 -51.393354 -0.622583 -0.341001 -10.923835 -34.072205 -35.424047 20.943200 7.125000 0.000000 0.000000 -0.116300 -70.480800 0.070700 
-10.513536 17.821590 6.050691 -10.696387 -84.412487 18.061775 -1.563185 -1.081260 -0.420077 -17.193535 -2.350532 0.269202 -0.012594 5.407482 13.926097 0.381129 0.145814 -5.053299 0.163600 -2.605700 -7.182800 -0.367346 1.053875 -1.956079 13.661554 3.827853 -31.864867 -0.858159 -7.552099 19.475255 3.266225 -19.630457 -2.446621 -0.173000 -2.679000 7.386400 0.846812 -1.800667 3.271931 1.631130 -1.996845 -6.043323 5.546327 -1.238510 -3.831110 -8.452629 -13.068543 -9.897887 25.619908 -17.900380 1.642032 8.299100 -7.943500 7.596100 6.350634 2.882228 0.293082 -92.389784 0.764067 10.731733 15.416019 -34.168346 -4.700922 1.781971 2.568234 23.026228 17.698031 22.846148 5.923000 -7.125000 0.000000 0.000000 -11.206400 50.192600 -1.450300 -4.190750 -1.751652 -0.380304 -3.265961 52.889297 -46.982198 -78.036562 57.874057 -52.165481 -0.659909 -0.330540 -10.586608 -33.834503 -34.312953 20.232800 7.125000 0.000000 0.000000 -0.450700 -69.245200 0.261700 
-10.646844 17.813819 6.036144 -10.578748 -84.353780 18.027225 -1.553385 -1.071042 -0.413615 -17.143546 -2.394047 0.550773 0.008181 5.481339 14.136793 0.382456 0.154748 -5.193874 0.196000 -2.851300 -7.865100 -0.365844 1.052624 -1.955794 13.546526 4.181892 -31.672143 -0.792513 -7.371835 18.934658 3.304752 -19.834533 -2.348117 -0.180600 -2.737200 7.548000 0.904844 -1.829457 3.215858 1.671394 -2.039172 -6.053298 5.626041 -1.255809 -3.828824 -8.417655 -13.091754 -9.885288 25.641010 -17.972211 1.735502 8.294600 -7.970300 7.639600 6.356625 2.880092 0.297604 -92.512579 0.772651 11.193262 15.611318 -34.409409 -4.766198 1.769508 2.575662 22.807290 17.758786 22.783394 5.928000 -7.125000 0.000000 0.000000 -11.122700 50.138400 -1.424200 -4.194350 -1.745698 -0.384503 -3.571663 53.296210 -48.030522 -78.848120 57.969794 -52.910384 -0.693922 -0.320452 -10.273049 -33.630448 -33.315431 19.599800 7.125000 0.000000 0.000000 -0.707400 -68.133700 0.393100 
-10.781348 17.806446 6.020502 -10.568537 -84.314883 18.091997 -1.542412 -1.062019 -0.408468 -17.084006 -2.437189 0.815963 0.033458 5.571342 14.393607 0.381391 0.174702 -5.314515 0.234000 -3.113400 -8.594600 -0.364053 1.050763 -1.955080 13.466385 4.518112 -31.480395 -0.739071 -7.221617 18.483487 3.334553 -20.002345 -2.226089 -0.189500 -2.803600 7.732500 0.957131 -1.856071 3.160433 1.711937 -2.078869 -6.061627 5.715072 -1.271857 -3.822874 -8.390146 -13.111700 -9.872934 25.655381 -18.039114 1.834587 8.290100 -7.994900 7.683900 6.363488 2.877622 0.302682 -92.644600 0.795488 11.625762 15.779044 -34.620192 -4.821667 1.758631 2.582246 22.627857 17.803366 22.719706 5.926700 -7.125000 0.000000 0.000000 -11.054100 50.080300 -1.399300 -4.194052 -1.740308 -0.389289 -3.666886 53.688903 -48.742566 -79.621414 58.064767 -53.615590 -0.724161 -0.311349 -9.983782 -33.458467 -32.442825 19.049000 7.125000 0.000000 0.000000 -0.902400 -67.159200 0.481400 
-10.916849 17.799472 6.003664 -10.683497 -84.297748 18.273757 -1.530126 -1.054406 -0.404795 -17.013534 -2.477415 1.061633 0.063649 5.678139 14.698775 0.377655 0.206181 -5.411999 0.278200 -3.392600 -9.373900 -0.361908 1.048220 -1.953898 13.425633 4.832914 -31.292871 -0.697126 -7.101461 18.121052 3.354137 -20.127901 -2.076448 -0.199300 -2.874900 7.930600 1.005532 -1.879842 3.105129 1.752644 -2.114875 -6.068069 5.812461 -1.286116 -3.812452 -8.368662 -13.128652 -9.861272 25.660263 -18.101866 1.940826 8.284300 -8.017300 7.729100 6.371433 2.875068 0.308135 -92.785086 0.829551 12.028178 15.915143 -34.797140 -4.865927 1.749722 2.587585 22.492629 17.832736 22.653162 5.919000 -7.125000 0.000000 0.000000 -10.999200 50.017100 -1.375000 -4.189968 -1.735893 -0.394179 -3.549515 54.069844 -49.120590 -80.344974 58.157526 -54.270360 -0.750479 -0.303773 -9.712965 -33.319856 -31.700101 18.584000 7.125000 0.000000 0.000000 -1.053500 -66.328400 0.541900 
-11.053545 17.792995 5.985929 -10.925029 -84.300584 18.573021 -1.516480 -1.048170 -0.402565 -16.931695 -2.513419 1.285849 0.099338 5.802417 15.054502 0.371546 0.246984 -5.481128 0.329100 -3.687200 -10.198300 -0.359355 1.045056 -1.952179 13.426642 5.120622 -31.109099 -0.665573 -7.009780 17.842424 3.362653 -20.207543 -1.899263 -0.210500 -2.953800 8.150300 1.051117 -1.901174 3.051944 1.793578 -2.147725 -6.072991 5.917948 -1.299026 -3.799243 -8.354221 -13.142834 -9.851400 25.656540 -18.160347 2.054373 8.277800 -8.037600 7.775900 6.380320 2.872540 0.313813 -92.933927 0.875475 12.401009 16.019791 -34.940800 -4.898555 1.742445 2.591910 22.402630 17.842939 22.584829 5.904000 -7.125000 0.000000 0.000000 -10.961900 49.949000 -1.351700 -4.182028 -1.732561 -0.398692 -3.215438 54.436718 -49.160180 -80.999966 58.246000 -54.857093 -0.772768 -0.298156 -9.455794 -33.220332 -31.088618 18.209300 7.125000 0.000000 0.000000 -1.181600 -65.645600 0.589200 
-11.191336 17.787018 5.966999 -11.323605 -84.323290 19.021191 -1.501248 -1.043575 -0.402027 -16.835341 -2.544525 1.484759 0.140933 5.944703 15.462710 0.362811 0.297920 -5.517307 0.387600 -3.997800 -11.070400 -0.356232 1.041134 -1.949838 13.473432 5.380767 -30.930696 -0.643574 -6.945845 17.644515 3.359377 -20.238795 -1.692693 -0.223100 -3.040300 8.390900 1.096633 -1.919620 2.998021 1.834783 -2.176961 -6.076036 6.029946 -1.310545 -3.780628 -8.346273 -13.153829 -9.842925 25.644262 -18.214162 2.174036 8.270500 -8.055600 7.823600 6.390204 2.870437 0.319597 -93.090464 0.931241 12.743346 16.091810 -35.050041 -4.919276 1.736649 2.595305 22.360732 17.830452 22.515625 5.880700 -7.125000 0.000000 0.000000 -10.945500 49.876600 -1.330000 -4.170307 -1.730878 -0.402184 -2.662908 54.787008 -48.860070 -81.572238 58.329074 -55.362930 -0.791140 -0.294837 -9.208911 -33.169214 -30.604461 17.928700 7.125000 0.000000 0.000000 -1.309700 -65.109700 0.636900 
-11.330125 17.781637 5.947172 -11.890534 -84.364229 19.628847 -1.484284 -1.040607 -0.403155 -16.724028 -2.569372 1.656767 0.189231 6.105370 15.924952 0.351384 0.357407 -5.514687 0.453200 -4.318700 -11.975000 -0.352379 1.036479 -1.946721 13.566493 5.611222 -30.755980 -0.630262 -6.908067 17.522677 3.344027 -20.219546 -1.462528 -0.237700 -3.137500 8.661700 1.143520 -1.935177 2.945341 1.876161 -2.202345 -6.077823 6.148038 -1.320523 -3.759346 -8.344630 -13.162013 -9.835571 25.622562 -18.263682 2.300618 8.262100 -8.071600 7.872300 6.401110 2.868794 0.325278 -93.254697 0.996683 13.054868 16.129701 -35.123572 -4.927123 1.732246 2.597694 22.369903 17.792967 22.444751 5.848400 -7.125000 0.000000 0.000000 -10.951600 49.798800 -1.309600 -4.154777 -1.731006 -0.404229 -1.889704 55.116122 -48.217718 -82.046330 58.405565 -55.773787 -0.805487 -0.294113 -8.970228 -33.167000 -30.251318 17.744200 7.125000 0.000000 0.000000 -1.443700 -64.725400 0.689200 
-11.469909 17.776955 5.926349 -12.644462 -84.422727 20.414874 -1.465362 -1.039363 -0.406217 -16.597001 -2.587506 1.799009 0.244734 6.284912 16.443532 0.337364 0.424346 -5.468098 0.525200 -4.644300 -12.896900 -0.347645 1.031174 -1.942919 13.706089 5.812620 -30.584407 -0.624986 -6.894941 17.472432 3.316734 -20.150133 -1.211666 -0.254000 -3.242500 8.954700 1.193095 -1.947817 2.891535 1.917659 -2.223962 -6.077314 6.271037 -1.329264 -3.731169 -8.348886 -13.167217 -9.830847 25.591766 -18.308214 2.432614 8.252600 -8.085100 7.921600 6.412979 2.868200 0.330791 -93.425419 1.069102 13.337396 16.134784 -35.162768 -4.922773 1.728839 2.599362 22.428963 17.727069 22.373788 5.806500 -7.125000 0.000000 0.000000 -10.983600 49.716800 -1.291100 -4.135735 -1.733597 -0.404102 -0.900077 55.420317 -47.239265 -82.408546 58.474828 -56.077777 -0.815864 -0.296126 -8.733558 -33.213610 -30.029287 17.656000 7.125000 0.000000 0.000000 -1.588100 -64.493100 0.749500 
